<svg width="474" height="67" viewBox="0 0 474 67" fill="none" xmlns="http://www.w3.org/2000/svg">
<g clip-path="url(#clip0_15_10)">
<path d="M24.506 66.812C39.006 66.812 48.206 59.512 48.206 48.212C48.206 38.512 42.706 33.212 29.206 30.212L22.006 28.612C12.506 26.512 8.20598 22.812 8.20598 16.612V16.512C8.20598 9.41199 14.606 4.61198 24.106 4.61198C33.406 4.61198 39.806 9.31198 40.706 17.112V17.712H47.006V17.112C46.206 6.31198 37.006 -1.08801 24.306 -1.08801C11.206 -1.08801 1.90598 6.312 1.80598 16.812C1.80598 26.212 7.60598 31.712 20.306 34.612L27.506 36.212C37.606 38.512 41.706 42.112 41.706 48.612C41.706 56.212 35.006 61.112 24.706 61.112C14.306 61.112 7.30598 56.312 6.30598 48.712V48.112H0.00598145V48.712C1.00598 59.812 10.506 66.812 24.506 66.812ZM91.306 65.812H97.606V5.61198H119.306V-0.0880127H69.506V5.61198H91.306V65.812ZM215.006 65.812H221.206V41.012H237.406C250.006 41.012 258.506 32.712 258.506 20.512V20.312C258.506 8.112 249.906 -0.0880127 237.406 -0.0880127H215.006V65.812ZM236.006 5.51199C246.106 5.51199 252.306 11.112 252.306 20.412V20.512C252.306 29.812 246.206 35.412 236.006 35.412H221.306V5.51199H236.006ZM286.206 65.812H292.406V41.012H308.606C321.206 41.012 329.706 32.712 329.706 20.512V20.312C329.706 8.112 321.106 -0.0880127 308.606 -0.0880127H286.206V65.812ZM307.206 5.51199C317.306 5.51199 323.506 11.112 323.506 20.412V20.512C323.506 29.812 317.406 35.412 307.206 35.412H292.406V5.51199H307.206ZM357.506 65.812H397.306V60.112H363.706V34.812H395.606V29.312H363.706V5.61198H397.306V-0.0880127H357.506V65.812ZM426.606 65.812H432.806V38.812H450.306L465.506 65.812H472.806L456.806 37.812C465.406 35.812 471.306 28.012 470.906 19.312V19.212C470.906 7.51199 462.706 -0.0880127 449.806 -0.0880127H426.606V65.812V65.812ZM432.806 33.312V5.51199H449.106C458.606 5.51199 464.506 10.712 464.506 19.312V19.412C464.506 28.212 458.906 33.312 449.306 33.312H432.806Z" fill="#726EFF"/>
<path d="M177.117 60.1549H137.317V65.7549H177.117V60.1549Z" fill="#726EFF"/>
<path d="M185.417 31.0549H145.617V36.6549H185.417V31.0549Z" fill="#726EFF"/>
<path d="M193.717 -0.0450439H153.917V5.55496H193.717V-0.0450439Z" fill="#726EFF"/>
</g>
<defs>
<clipPath id="clip0_15_10">
<rect width="473.6" height="66.3" fill="white"/>
</clipPath>
</defs>
</svg>
